:FULLY-SPECIFIED
:FORCE-ALL-JOINTS-BE-3DOF
:DEGREES
849
root 3.85987 16.313 28.1563 -9.43776 7.01093 359.334
lfemur -22.6518 1.07618 -17.3768
ltibia 37.1461 0 0
lfoot -7.3918 -13.4194 0
ltoes 3.15819 0 0
rfemur -35.4381 -3.15404 1.18069
rtibia 103.398 0 0
rfoot 35.52 19.8224 0
rtoes -4.33407 0 0
lowerback 4.3322 2.95542 -2.81353
upperback 1.12556 3.79181 0.247568
thorax -1.44228 1.90306 1.65681
lowerneck -6.25253 -3.74183 2.50564
upperneck 8.98371 -5.42062 1.42746
head 4.0232 -2.5223 -0.258898
lclavicle 3.14825e-14 4.37325e-15 0
lhumerus -50.2282 -10.5513 83.9917
lradius 55.5488 0 0
lwrist 20.9084 0 0
lhand -2.86245 3.56064 0
lfingers 7.12502 0 0
lthumb 22.8454 32.2212 0
rclavicle 3.14825e-14 4.37325e-15 0
rhumerus -38.9941 14.5913 -66.7381
rradius 51.1683 0 0
rwrist 9.00058 0 0
rhand -35.8779 -32.3614 0
rfingers 7.12502 0 0
rthumb -8.99193 -782.148 0
850
root 3.86967 16.3176 28.2508 -10.1272 8.0548 359.555
lfemur -21.7203 1.35508 -17.9194
ltibia 37.2281 0 0
lfoot -7.5862 -14.4967 0
ltoes 4.46513 0 0
rfemur -38.9635 -2.75962 1.16443
rtibia 104.771 0 0
rfoot 34.5348 18.6381 0
rtoes -3.82544 0 0
lowerback 5.21345 2.5821 -3.22203
upperback 1.43953 3.24358 0.104924
thorax -1.59389 1.6288 1.74528
lowerneck -6.19208 -3.71889 2.49066
upperneck 8.90244 -5.39522 1.54555
head 3.98672 -2.50672 -0.213325
lclavicle 2.12327e-14 6.36108e-15 0
lhumerus -49.1865 -11.4221 83.6035
lradius 55.4413 0 0
lwrist 21.1704 0 0
lhand -2.36853 3.61137 0
lfingers 7.12502 0 0
lthumb 23.3192 32.2118 0
rclavicle 2.12327e-14 6.36108e-15 0
rhumerus -39.9004 13.5776 -65.7475
rradius 51.122 0 0
rwrist 8.77864 0 0
rhand -35.6189 -32.6216 0
rfingers 7.12502 0 0
rthumb -8.74202 -782.419 0
851
root 3.87947 16.3221 28.3453 -10.8166 9.09867 359.777
lfemur -20.7889 1.63397 -18.4619
ltibia 37.3101 0 0
lfoot -7.78061 -15.574 0
ltoes 5.77207 0 0
rfemur -42.4889 -2.3652 1.14816
rtibia 106.144 0 0
rfoot 33.5496 17.4538 0
rtoes -3.31681 0 0
lowerback 6.09469 2.20878 -3.63053
upperback 1.7535 2.69536 -0.0377203
thorax -1.7455 1.35454 1.83376
lowerneck -6.13162 -3.69595 2.47568
upperneck 8.82116 -5.36983 1.66364
head 3.95024 -2.49114 -0.167752
lclavicle 1.09829e-14 8.34892e-15 0
lhumerus -48.1449 -12.2928 83.2154
lradius 55.3338 0 0
lwrist 21.4325 0 0
lhand -1.87461 3.66211 0
lfingers 7.12502 0 0
lthumb 23.793 32.2024 0
rclavicle 1.09829e-14 8.34892e-15 0
rhumerus -40.8066 12.5639 -64.7568
rradius 51.0757 0 0
rwrist 8.5567 0 0
rhand -35.3599 -32.8818 0
rfingers 7.12502 0 0
rthumb -8.49211 -782.69 0
852
root 3.88928 16.3266 28.4398 -11.506 10.1425 359.999
lfemur -19.8575 1.91287 -19.0044
ltibia 37.3922 0 0
lfoot -7.97502 -16.6514 0
ltoes 7.07902 0 0
rfemur -46.0143 -1.97077 1.13189
rtibia 107.517 0 0
rfoot 32.5644 16.2696 0
rtoes -2.80818 0 0
lowerback 6.97594 1.83545 -4.03902
upperback 2.06747 2.14714 -0.180365
thorax -1.89712 1.08028 1.92224
lowerneck -6.07117 -3.67302 2.46071
upperneck 8.73988 -5.34444 1.78174
head 3.91376 -2.47557 -0.12218
lclavicle 7.33017e-16 1.03368e-14 0
lhumerus -47.1033 -13.1636 82.8272
lradius 55.2264 0 0
lwrist 21.6945 0 0
lhand -1.38069 3.71285 0
lfingers 7.12502 0 0
lthumb 24.2669 32.193 0
rclavicle 7.33017e-16 1.03368e-14 0
rhumerus -41.7128 11.5503 -63.7661
rradius 51.0295 0 0
rwrist 8.33475 0 0
rhand -35.101 -33.1421 0
rfingers 7.12502 0 0
rthumb -8.24219 -782.96 0
853
root 3.89908 16.3311 28.5343 -12.1954 11.1864 360.221
lfemur -18.926 2.19177 -19.5469
ltibia 37.4742 0 0
lfoot -8.16943 -17.7287 0
ltoes 8.38596 0 0
rfemur -49.5397 -1.57635 1.11562
rtibia 108.89 0 0
rfoot 31.5792 15.0853 0
rtoes -2.29955 0 0
lowerback 7.85719 1.46213 -4.44752
upperback 2.38144 1.59891 -0.323009
thorax -2.04873 0.806019 2.01072
lowerneck -6.01071 -3.65008 2.44573
upperneck 8.65861 -5.31905 1.89983
head 3.87728 -2.45999 -0.0766071
lclavicle -9.51682e-15 1.23246e-14 0
lhumerus -46.0617 -14.0344 82.439
lradius 55.1189 0 0
lwrist 21.9565 0 0
lhand -0.886775 3.76358 0
lfingers 7.12502 0 0
lthumb 24.7407 32.1836 0
rclavicle -9.51682e-15 1.23246e-14 0
rhumerus -42.619 10.5366 -62.7754
rradius 50.9832 0 0
rwrist 8.11281 0 0
rhand -34.842 -33.4023 0
rfingers 7.12502 0 0
rthumb -7.99228 -783.231 0
854
root 3.90823 16.3629 28.6115 -12.6869 12.1375 360.084
lfemur -18.003 2.60946 -19.5796
ltibia 36.9769 0 0
lfoot -7.65364 -18.9256 0
ltoes 10.3643 0 0
rfemur -51.0735 -1.36188 1.44246
rtibia 104.392 0 0
rfoot 29.2474 12.6839 0
rtoes -1.01796 0 0
lowerback 8.55483 1.09073 -4.47738
upperback 2.63097 1.07155 -0.422604
thorax -2.13792 0.542841 1.98636
lowerneck -6.0102 -3.6245 2.43696
upperneck 8.64014 -5.29733 2.04902
head 3.87595 -2.44306 -0.0246186
lclavicle -3.51187e-15 7.62003e-15 0
lhumerus -44.9315 -14.8976 82.185
lradius 55.0116 0 0
lwrist 22.1012 0 0
lhand -0.0408942 3.8751 0
lfingers 7.12502 0 0
lthumb 25.5499 32.1684 0
rclavicle -3.51187e-15 7.62003e-15 0
rhumerus -43.5512 9.47586 -61.8391
rradius 51.117 0 0
rwrist 7.21984 0 0
rhand -32.8433 -32.7851 0
rfingers 7.12502 0 0
rthumb -6.06222 -782.634 0
